<?xml version="1.0" standalone="no"?>
<!DOCTYPE svg PUBLIC "-//W3C//DTD SVG 20010904//EN"
 "http://www.w3.org/TR/2001/REC-SVG-20010904/DTD/svg10.dtd">
<svg version="1.0" xmlns="http://www.w3.org/2000/svg"
 width="831.000000pt" height="831.000000pt" viewBox="0 0 831.000000 831.000000"
 preserveAspectRatio="xMidYMid meet">
<metadata>
Created by potrace 1.14, written by Peter Selinger 2001-2017
</metadata>
<g transform="translate(0.000000,831.000000) scale(0.100000,-0.100000)"
fill="#000000" stroke="none">
<path d="M3883 6983 c-24 -13 -43 -28 -43 -32 0 -3 13 -14 28 -23 43 -25 162
-31 288 -13 109 15 243 40 249 47 2 2 -46 4 -108 4 -68 1 -158 9 -230 22 -66
12 -124 22 -130 21 -7 -1 -31 -12 -54 -26z"/>
<path d="M4957 6883 c-11 -10 -8 -43 3 -43 6 0 10 11 10 25 0 26 -2 29 -13 18z"/>
<path d="M4755 6703 c-122 -66 -377 -127 -350 -83 3 5 1 10 -5 10 -6 0 -14
-11 -19 -23 -8 -21 -21 -26 -113 -41 -154 -25 -313 -21 -416 11 -56 17 -78 12
-47 -11 23 -17 194 -46 268 -46 145 0 486 70 598 123 31 15 59 27 63 27 4 0
24 11 44 25 41 28 24 33 -23 8z"/>
<path d="M4715 6569 c-63 -25 -159 -55 -205 -64 -19 -3 -46 -10 -60 -15 -51
-19 -268 -39 -315 -30 -21 5 -109 -3 -90 -7 11 -3 25 -11 32 -19 7 -10 13 -12
18 -5 4 7 46 11 103 11 116 0 329 36 417 70 54 21 155 70 155 74 0 7 4 8 -55
-15z"/>
<path d="M3806 6527 c4 -11 44 -42 44 -34 0 7 -37 47 -43 47 -4 0 -4 -6 -1
-13z"/>
<path d="M6004 6390 c-83 -9 -120 -26 -163 -75 -45 -51 -44 -104 3 -140 31
-24 37 -25 82 -15 52 11 108 34 192 78 54 29 64 32 96 32 25 0 40 -7 54 -25
11 -14 23 -25 26 -25 16 0 3 52 -23 87 -57 79 -123 100 -267 83z"/>
<path d="M6048 5885 c-2 -2 -30 -6 -63 -9 -162 -15 -191 -18 -205 -23 -8 -3
-49 -11 -90 -19 -126 -22 -162 -30 -244 -58 -43 -14 -87 -26 -97 -26 -10 0
-44 -10 -76 -22 -32 -12 -61 -21 -65 -20 -4 1 -19 -3 -34 -8 -30 -12 -26 -22
9 -26 97 -10 226 -78 300 -159 15 -16 27 -34 27 -39 0 -5 10 -23 23 -40 13
-17 36 -58 52 -91 15 -33 32 -69 38 -80 6 -11 14 -33 18 -50 4 -16 17 -57 29
-90 33 -91 58 -184 66 -242 3 -29 10 -53 14 -53 3 0 20 48 36 106 27 100 51
145 84 156 11 3 10 11 -7 39 -82 136 -97 183 -96 315 1 60 6 82 34 139 40 80
115 163 179 196 37 19 61 23 141 23 98 1 101 0 207 -53 84 -42 195 -138 248
-216 47 -69 144 -250 144 -270 0 -5 11 -37 24 -70 27 -67 62 -182 71 -235 4
-20 -1 -67 -11 -110 -9 -41 -19 -92 -21 -113 -3 -20 -9 -40 -14 -43 -13 -8
-11 -34 3 -34 7 0 26 13 43 28 16 16 55 37 85 47 52 16 59 17 111 2 125 -37
187 -140 235 -392 30 -162 9 -442 -52 -690 -22 -92 -96 -310 -120 -356 -11
-20 -28 -53 -39 -75 -11 -21 -23 -43 -28 -49 -4 -5 -31 -42 -60 -81 -57 -78
-124 -164 -159 -206 -35 -42 -216 -199 -315 -274 -48 -37 -100 -77 -115 -88
-56 -44 -92 -71 -108 -81 -10 -5 -45 -32 -78 -60 -34 -27 -85 -68 -114 -90
-58 -44 -410 -394 -640 -636 -218 -229 -374 -389 -380 -389 -3 0 -25 -19 -50
-42 -96 -93 -145 -136 -188 -165 -25 -17 -56 -43 -69 -57 -14 -14 -28 -26 -33
-26 -8 0 -98 -58 -125 -80 -7 -5 -15 -10 -18 -10 -3 0 -29 -15 -58 -33 -67
-42 -89 -52 -163 -77 -115 -39 -260 -27 -334 27 -45 33 -125 119 -142 152 -7
14 -22 40 -34 56 -33 46 -74 188 -74 256 0 22 -4 38 -8 35 -9 -5 -7 -204 2
-253 13 -70 -18 -20 -40 64 -34 133 -19 403 31 548 13 39 31 102 40 140 9 39
34 108 56 153 22 46 39 85 37 87 -2 2 -22 -2 -43 -10 -22 -8 -58 -14 -80 -15
-40 0 -40 0 40 41 108 56 128 71 186 143 53 64 72 86 113 125 21 20 23 28 14
45 l-11 21 23 -20 c13 -11 20 -14 16 -7 -4 7 -1 12 8 12 9 0 16 7 16 15 0 18
-20 20 -20 3 -1 -8 -6 -6 -14 5 -13 17 -14 17 -21 0 -5 -10 -9 -22 -9 -28 -1
-5 -7 -11 -13 -11 -26 -3 -26 -4 -8 -17 12 -10 14 -16 7 -21 -7 -4 -16 -5 -21
-2 -10 6 -34 -18 -26 -26 3 -3 -1 -11 -9 -17 -13 -11 -14 -8 -10 16 3 15 12
33 20 40 21 15 10 33 -16 26 -27 -7 -34 -21 -20 -38 23 -28 -9 -24 -40 5 -18
16 -36 27 -42 24 -5 -3 7 -21 27 -39 23 -20 33 -35 26 -39 -14 -9 -33 2 -26
14 3 5 0 12 -6 16 -7 4 -9 3 -6 -2 3 -6 1 -16 -4 -24 -7 -12 -10 -11 -15 8 -6
23 -32 27 -46 7 -5 -6 -8 -5 -8 3 0 6 -7 12 -15 12 -8 0 -15 7 -15 16 0 12 6
15 24 10 27 -7 37 0 29 20 -4 10 -9 11 -25 1 -16 -9 -22 -9 -25 1 -3 6 -9 12
-15 12 -6 0 -6 -6 2 -15 10 -12 7 -15 -17 -20 -45 -10 -50 -13 -23 -14 41 -2
52 -14 36 -37 -13 -17 -12 -22 2 -39 14 -17 13 -17 -7 1 -18 17 -21 26 -13 40
9 17 6 19 -27 21 -24 2 -31 0 -22 -6 21 -14 3 -32 -25 -25 -14 4 -24 2 -24 -5
0 -6 17 -11 39 -11 24 0 41 -5 44 -14 4 -11 -2 -12 -28 -6 -27 6 -38 4 -51
-11 -13 -14 -14 -22 -5 -33 9 -11 8 -15 -3 -19 -10 -4 -13 -1 -9 9 3 7 0 14
-6 14 -6 0 -8 6 -6 13 3 6 1 18 -4 26 -8 12 -11 12 -24 -1 -12 -12 -13 -18 -4
-28 10 -10 6 -12 -16 -8 -24 5 -27 2 -28 -26 l-2 -31 -6 32 c-5 29 -8 30 -25
18 -13 -10 -17 -22 -14 -40 4 -18 1 -25 -11 -26 -24 -2 -24 -2 -48 6 -14 4
-23 2 -23 -4 0 -6 9 -11 19 -11 11 0 23 -4 26 -10 3 -5 16 -10 28 -11 22 0 21
0 -2 -10 -20 -8 -22 -11 -10 -27 13 -15 12 -16 -3 -4 -11 9 -18 10 -23 2 -3
-5 -11 -10 -18 -10 -8 0 -8 3 1 12 7 7 12 19 11 28 0 13 -1 13 -6 0 -7 -17
-33 -39 -47 -40 -4 0 2 9 15 19 23 19 23 20 5 39 -10 12 -15 26 -11 31 3 6 -1
11 -9 11 -26 0 -30 1 -42 11 -14 11 -39 -15 -29 -31 4 -7 -2 -7 -20 0 -35 13
-40 13 -27 -3 9 -10 4 -16 -18 -24 -25 -9 -30 -9 -30 3 0 8 -5 14 -11 14 -7 0
-9 -10 -7 -24 5 -25 -7 -37 -29 -29 -7 3 -13 9 -13 15 0 5 -6 15 -13 23 -11
10 -18 10 -38 -1 -29 -16 -49 -18 -49 -3 0 5 6 7 13 3 9 -6 9 -4 -1 8 -11 14
-10 18 5 27 17 9 16 10 -3 8 -14 -1 -21 -7 -20 -21 1 -10 -5 -21 -13 -24 -9
-3 -11 0 -6 8 5 9 4 11 -4 6 -16 -10 -74 28 -90 58 -8 15 -11 36 -7 53 4 15 8
36 9 45 1 9 16 25 34 35 18 10 33 21 33 24 0 4 15 16 33 26 33 21 189 140 219
170 10 9 21 14 24 10 4 -3 15 4 25 17 11 13 40 36 66 52 27 15 52 33 56 41 5
7 12 11 18 8 5 -4 9 -2 9 4 0 5 20 24 44 40 25 17 50 37 58 43 7 7 30 24 50
38 21 14 38 28 38 33 0 4 5 7 10 7 6 0 21 9 33 21 12 11 35 27 51 36 15 8 59
40 97 72 37 32 87 71 111 87 24 16 48 34 53 40 6 6 24 19 40 29 30 18 57 42
141 123 47 45 53 65 12 39 -12 -9 -43 -20 -68 -27 -25 -6 -70 -22 -100 -35
-30 -13 -83 -31 -117 -41 -35 -9 -63 -21 -63 -25 0 -4 -19 -10 -42 -14 -24 -4
-67 -20 -96 -36 -29 -16 -62 -29 -72 -29 -10 0 -35 -9 -57 -19 -21 -11 -81
-34 -133 -52 -52 -18 -122 -45 -155 -60 -33 -16 -70 -29 -82 -29 -12 0 -25 -4
-28 -10 -3 -5 -16 -10 -29 -10 -12 0 -26 -4 -31 -8 -6 -5 -30 -14 -55 -21 -25
-7 -80 -23 -122 -37 -43 -13 -82 -24 -87 -24 -5 0 -22 -5 -38 -12 -15 -7 -32
-12 -38 -13 -34 -4 -83 -20 -100 -31 -11 -8 -30 -14 -43 -14 -13 0 -38 -6 -55
-14 -39 -17 -120 -37 -166 -41 -18 -2 -45 -8 -60 -14 -23 -8 -191 -38 -261
-46 -14 -1 -51 -10 -82 -19 -31 -8 -76 -17 -100 -20 -38 -3 -99 -17 -209 -46
-20 -6 -40 -10 -45 -10 -15 1 70 39 86 40 9 0 20 4 25 9 17 17 145 81 161 81
17 0 25 6 102 80 32 30 77 71 100 91 23 20 42 41 42 46 0 5 21 30 48 56 63 62
102 105 102 112 0 3 19 34 43 68 23 34 49 75 57 90 8 16 23 39 35 51 31 35 65
84 65 95 0 6 6 14 13 18 12 8 90 192 94 223 1 8 9 58 17 110 21 127 7 428 -21
474 -4 6 -8 19 -8 29 -1 10 -6 22 -11 25 -6 4 -22 32 -37 63 -23 49 -63 107
-96 144 -31 34 -155 135 -166 135 -5 0 -22 11 -40 24 -36 28 -145 63 -222 72
-44 6 -61 3 -98 -16 -25 -13 -45 -27 -45 -32 0 -4 -6 -8 -13 -8 -7 0 -22 -8
-33 -19 -11 -10 -40 -34 -65 -52 -147 -114 -311 -287 -400 -424 -14 -22 -45
-60 -68 -83 -24 -24 -40 -46 -37 -49 3 -3 -13 -40 -35 -83 -21 -42 -39 -81
-39 -86 0 -16 -42 -94 -51 -94 -5 0 -9 -8 -9 -18 0 -10 -3 -22 -6 -25 -4 -4
-8 -20 -9 -37 -2 -17 -10 -39 -19 -49 -9 -10 -16 -32 -16 -49 0 -17 -5 -34
-11 -37 -6 -4 -8 -14 -4 -23 3 -8 1 -29 -4 -46 -6 -17 -13 -58 -17 -91 -9 -82
-13 -308 -5 -320 3 -5 6 -37 7 -70 0 -33 6 -73 13 -88 6 -16 11 -41 11 -57 0
-16 5 -32 10 -35 6 -4 10 -12 9 -18 -4 -21 21 -94 36 -107 8 -7 15 -20 15 -30
0 -10 7 -23 15 -30 8 -7 12 -16 9 -21 -3 -5 3 -12 13 -16 22 -8 53 -38 53 -53
0 -5 5 -10 10 -10 20 0 10 -20 -17 -34 -59 -32 -209 -191 -274 -291 -66 -102
-120 -206 -124 -240 0 -5 -8 -26 -17 -45 -9 -19 -19 -55 -23 -80 -3 -24 -11
-50 -17 -57 -6 -7 -7 -13 -3 -13 5 0 0 -9 -9 -19 -10 -10 -16 -25 -15 -33 1
-7 0 -20 -3 -28 -9 -24 -48 -241 -53 -295 -3 -27 -10 -65 -16 -84 -7 -19 -13
-55 -14 -80 -5 -97 -17 -191 -26 -197 -5 -3 -5 -14 2 -25 5 -11 8 -27 5 -37
-6 -18 -13 -68 -22 -147 -3 -27 -9 -68 -14 -90 -5 -22 -12 -78 -15 -124 -3
-46 -8 -88 -12 -95 -4 -6 -8 -31 -10 -56 -1 -25 -4 -67 -6 -95 -3 -27 -8 -97
-11 -155 -3 -58 -7 -114 -8 -125 -3 -20 3 -20 1383 -23 l1385 -2 23 57 c13 32
32 77 43 100 11 23 18 46 14 51 -3 5 0 27 8 48 13 39 29 120 31 159 3 78 18
114 66 161 56 55 68 51 70 -21 2 -50 2 -53 17 -89 7 -16 10 -36 7 -46 -3 -9 1
-33 10 -53 8 -19 17 -55 19 -79 2 -24 11 -64 19 -90 8 -26 12 -49 9 -52 -2 -3
1 -12 8 -21 7 -8 15 -38 19 -67 l6 -53 1938 -3 c1843 -2 1938 -1 1934 15 -5
17 -20 88 -22 108 -1 6 -5 17 -8 25 -10 26 -38 164 -38 187 0 12 -4 25 -9 28
-6 3 -10 17 -10 31 0 13 -9 59 -20 102 -10 42 -21 88 -23 102 -2 14 -7 33 -12
43 -4 9 -5 26 -2 37 3 11 1 23 -4 26 -5 3 -9 15 -9 28 0 12 -4 26 -9 31 -6 6
-12 26 -14 45 -3 19 -10 49 -17 65 -6 17 -13 46 -16 65 -6 54 -16 94 -24 105
-9 12 -20 56 -27 105 -3 18 -11 43 -18 55 -8 11 -23 54 -34 97 -11 42 -26 89
-34 105 -15 29 -38 103 -43 138 -1 11 -7 38 -13 60 -12 44 -47 232 -62 335 -6
36 -12 74 -14 85 -9 46 -16 103 -20 148 -2 26 -7 56 -10 66 -3 10 1 24 10 31
8 7 15 18 15 24 0 6 18 36 39 68 37 52 91 155 91 172 0 4 9 19 20 33 11 14 20
39 20 54 0 16 5 29 10 29 6 0 10 5 10 10 0 6 11 28 25 50 14 22 25 48 25 59 0
10 7 35 15 55 8 20 15 38 15 41 1 2 14 33 30 67 17 35 30 68 30 74 0 7 7 25
15 40 8 16 15 37 15 47 0 10 7 31 15 47 8 16 18 46 21 67 3 21 8 41 9 44 11
17 54 324 60 429 3 36 7 85 11 110 18 121 1 537 -27 653 -6 26 -12 60 -14 75
-8 64 -16 105 -25 123 -6 10 -8 29 -4 42 4 17 1 26 -10 30 -9 4 -16 18 -16 34
0 16 -9 45 -20 66 -11 20 -20 43 -20 52 0 32 -174 340 -225 396 -13 15 -31 41
-40 58 -8 17 -19 31 -24 31 -4 0 -13 11 -19 25 -6 14 -18 25 -26 25 -8 0 -22
13 -31 28 -10 16 -30 37 -47 48 -16 10 -36 31 -44 47 -8 15 -21 27 -28 27 -7
0 -27 16 -44 36 -17 19 -38 37 -47 38 -9 1 -32 14 -50 29 -19 15 -38 27 -44
27 -5 0 -11 4 -13 8 -1 5 -50 34 -108 65 -132 70 -290 112 -460 122 -63 4
-129 8 -147 10 -17 2 -33 2 -35 0z m-1948 -3529 c0 -3 -4 -8 -10 -11 -5 -3
-10 -1 -10 4 0 6 5 11 10 11 6 0 10 -2 10 -4z m-270 -86 c0 -5 -4 -10 -10 -10
-5 0 -10 5 -10 10 0 6 5 10 10 10 6 0 10 -4 10 -10z m55 -43 c6 -6 3 -7 -6 -4
-9 3 -22 0 -29 -6 -10 -9 -11 -9 -6 1 4 6 2 12 -3 12 -15 0 -14 23 1 38 10 10
15 8 23 -10 5 -13 14 -27 20 -31z m95 28 c-7 -8 -20 -15 -29 -15 -13 1 -13 3
3 15 26 19 42 19 26 0z m-200 -61 c0 -14 -4 -23 -10 -19 -5 3 -10 1 -10 -6 0
-7 -3 -9 -6 -6 -4 4 -1 13 6 22 7 9 10 18 6 22 -3 3 -6 1 -6 -6 0 -7 -4 -9
-10 -6 -17 10 -11 25 10 25 15 0 20 -7 20 -26z m-120 -13 c0 -5 -9 -11 -21
-14 -20 -5 -20 -6 -3 -34 l18 -28 -28 28 c-16 15 -27 29 -25 31 10 8 45 25 52
26 4 0 7 -4 7 -9z m83 -42 c5 -4 -5 -15 -22 -24 -18 -9 -35 -14 -39 -11 -3 3
-1 6 5 6 6 0 16 14 24 32 8 20 15 26 17 17 3 -8 9 -17 15 -20z m-558 -49 c-3
-5 -10 -10 -16 -10 -5 0 -9 5 -9 10 0 6 7 10 16 10 8 0 12 -4 9 -10z m137 -11
c-13 -5 -20 -13 -17 -19 3 -5 2 -10 -3 -10 -15 0 -22 28 -9 34 7 2 21 4 32 5
18 0 17 -1 -3 -10z m55 -25 c-3 -3 -12 -4 -19 -1 -8 3 -5 6 6 6 11 1 17 -2 13
-5z"/>
<path d="M3851 2244 c0 -11 3 -14 6 -6 3 7 2 16 -1 19 -3 4 -6 -2 -5 -13z"/>
<path d="M4850 5624 c-52 -14 -108 -26 -125 -28 -78 -8 -137 -38 -230 -113
-31 -26 -171 -106 -240 -138 -55 -26 -101 -40 -147 -44 -99 -10 -97 -25 2 -17
156 13 407 78 547 142 28 13 55 24 58 24 3 0 33 18 65 40 32 22 64 40 70 40 6
0 29 17 53 38 23 21 55 48 71 60 l29 22 -29 -1 c-16 0 -72 -11 -124 -25z"/>
<path d="M6265 5366 c-95 -27 -144 -55 -204 -115 -94 -95 -120 -196 -66 -255
41 -44 70 -44 160 2 129 66 169 75 294 67 118 -8 126 -5 137 53 8 42 -11 42
-25 1 l-11 -32 -99 7 c-113 8 -141 3 -277 -56 -52 -22 -101 -38 -111 -36 -13
3 -9 8 17 20 31 14 130 110 130 127 0 4 -9 15 -21 24 -27 23 -21 47 18 72 17
11 34 30 37 42 10 36 122 54 198 31 36 -11 89 -58 100 -90 3 -7 9 -10 13 -6
13 13 -45 98 -85 124 -48 32 -133 40 -205 20z"/>
<path d="M3900 5320 c0 -13 71 -33 100 -28 20 4 18 6 -15 12 -22 4 -48 11 -57
17 -22 11 -28 11 -28 -1z"/>
<path d="M6325 4089 c-248 -126 -404 -179 -680 -228 -66 -12 -145 -28 -175
-36 -30 -7 -75 -18 -100 -23 -25 -6 -70 -17 -100 -25 -30 -9 -91 -25 -135 -37
-120 -32 -133 -36 -230 -65 -49 -15 -113 -35 -140 -46 -28 -10 -56 -19 -63
-19 -7 0 -20 -4 -30 -9 -9 -5 -28 -14 -42 -19 -24 -10 -24 -11 -2 -11 30 -1
28 -17 -5 -38 -16 -10 -49 -34 -74 -55 -25 -21 -49 -38 -55 -38 -5 -1 -34 -24
-65 -53 l-57 -52 44 4 c27 2 44 -1 44 -8 0 -19 -164 -177 -225 -217 -33 -21
-69 -45 -80 -52 -11 -7 -32 -18 -47 -25 -31 -13 -38 -37 -10 -37 9 0 34 9 55
20 20 11 38 20 39 20 2 0 -66 -71 -150 -157 -175 -180 -205 -229 -166 -268 24
-23 68 -11 141 41 34 24 65 44 69 44 4 0 22 11 40 25 18 14 36 25 40 25 3 0
29 16 55 35 27 19 54 35 59 35 6 0 10 4 10 10 0 5 11 12 25 16 14 3 25 10 25
15 0 5 5 9 11 9 6 0 30 14 54 30 24 17 47 30 50 30 4 0 39 21 79 46 39 26 87
57 106 69 19 12 54 34 78 49 23 15 47 24 52 21 5 -3 11 -1 15 5 3 6 41 27 83
48 42 20 82 40 87 45 35 26 124 82 177 112 59 32 104 56 313 163 44 23 85 45
90 49 6 5 27 16 47 26 83 43 252 156 310 207 33 30 80 72 103 93 23 20 49 37
57 37 8 0 18 4 24 8 5 5 36 20 69 32 33 13 71 30 85 37 33 17 36 10 11 -31
-47 -76 -285 -251 -436 -320 -22 -11 -47 -23 -55 -28 -8 -4 -22 -11 -30 -14
-109 -46 -458 -230 -480 -254 -3 -3 -30 -18 -60 -34 -30 -16 -62 -34 -70 -40
-8 -7 -31 -20 -50 -29 -19 -10 -48 -25 -65 -35 -16 -9 -77 -44 -135 -77 -58
-32 -127 -75 -155 -94 -27 -19 -55 -34 -62 -34 -7 0 -11 -2 -9 -5 8 -8 -147
-122 -212 -156 -15 -8 -36 -23 -47 -33 -26 -23 -122 -86 -160 -105 -16 -8 -48
-25 -70 -38 -22 -13 -53 -30 -70 -38 -16 -9 -49 -28 -72 -44 -23 -15 -46 -28
-51 -28 -5 0 -20 -8 -33 -19 -13 -10 -35 -22 -49 -26 -13 -4 -30 -14 -38 -21
-7 -8 -25 -17 -40 -21 -15 -3 -29 -9 -32 -12 -6 -8 -81 -44 -97 -47 -16 -3
-84 -24 -103 -32 -8 -3 -22 -7 -30 -8 -8 -1 -51 -14 -95 -29 -52 -18 -111 -29
-168 -32 -90 -6 -110 -15 -85 -39 23 -23 139 -18 245 10 51 13 90 20 87 15 -3
-5 -1 -9 4 -9 6 0 12 6 15 14 5 12 60 31 81 27 4 -1 23 7 42 18 18 11 50 23
71 26 30 4 34 3 18 -5 l-20 -10 20 3 c11 2 19 8 18 15 -2 8 194 123 242 141 5
2 18 10 28 19 14 12 17 13 18 1 0 -8 4 -4 10 9 5 13 13 20 19 17 5 -3 10 -1
10 4 0 6 5 11 12 11 6 0 19 6 27 14 30 26 182 106 200 106 6 0 16 9 23 20 7
11 16 20 21 20 4 0 49 31 100 69 51 37 102 73 114 79 12 7 27 18 35 25 23 22
185 127 196 127 6 0 12 4 14 9 2 5 21 18 43 29 71 35 169 89 205 110 19 12 60
35 90 52 156 87 188 106 201 116 8 6 58 34 111 62 54 29 106 56 115 61 10 6
47 24 83 40 121 55 205 96 263 131 32 19 66 40 75 45 17 10 77 52 97 67 6 5
28 22 50 38 75 56 117 105 151 175 19 38 34 75 34 82 0 7 18 24 40 38 38 24
54 55 28 55 -7 -1 -49 -19 -93 -41z"/>
<path d="M6493 3992 c-73 -80 -82 -94 -83 -119 -1 -61 90 11 110 88 6 23 19
53 27 66 28 42 -1 24 -54 -35z"/>
<path d="M4800 2840 c0 -5 10 -10 23 -10 18 0 19 2 7 10 -19 13 -30 13 -30 0z"/>
<path d="M4781 2824 c0 -11 3 -14 6 -6 3 7 2 16 -1 19 -3 4 -6 -2 -5 -13z"/>
<path d="M4718 2783 c7 -3 16 -2 19 1 4 3 -2 6 -13 5 -11 0 -14 -3 -6 -6z"/>
<path d="M4556 2678 c3 -5 10 -6 15 -3 13 9 11 12 -6 12 -8 0 -12 -4 -9 -9z"/>
<path d="M4503 2613 c0 -7 3 -13 7 -13 3 0 14 6 23 13 16 11 15 12 -6 12 -13
0 -24 -6 -24 -12z"/>
<path d="M4250 2600 c-11 -7 -12 -12 -4 -20 8 -8 13 -6 17 9 3 12 4 21 4 21
-1 0 -9 -5 -17 -10z"/>
<path d="M3801 2564 c0 -11 3 -14 6 -6 3 7 2 16 -1 19 -3 4 -6 -2 -5 -13z"/>
<path d="M4307 2560 c-3 -13 0 -20 10 -20 8 0 11 -5 7 -12 -4 -7 -3 -8 4 -4 9
5 9 13 1 29 -16 30 -16 30 -22 7z"/>
<path d="M4153 2555 c0 -8 4 -12 9 -9 5 3 6 10 3 15 -9 13 -12 11 -12 -6z"/>
<path d="M4375 2560 c-3 -5 -1 -10 4 -10 6 0 11 5 11 10 0 6 -2 10 -4 10 -3 0
-8 -4 -11 -10z"/>
<path d="M4240 2545 c0 -8 2 -15 4 -15 2 0 6 7 10 15 3 8 1 15 -4 15 -6 0 -10
-7 -10 -15z"/>
<path d="M4265 2540 c-3 -5 -1 -10 4 -10 6 0 11 5 11 10 0 6 -2 10 -4 10 -3 0
-8 -4 -11 -10z"/>
<path d="M4170 2500 c0 -13 5 -18 14 -14 8 3 12 12 9 20 -8 21 -23 17 -23 -6z"/>
<path d="M4210 2508 c0 -6 7 -19 16 -29 11 -13 12 -17 2 -16 -34 1 -48 -5 -58
-24 -11 -20 -11 -20 16 -2 16 10 25 12 21 6 -15 -24 15 -13 35 12 19 24 47 25
31 1 -4 -7 0 -3 10 7 22 25 22 30 -8 44 -22 10 -25 9 -26 -10 0 -22 0 -22 -11
1 -12 23 -28 30 -28 10z"/>
<path d="M4115 2500 c3 -5 8 -10 11 -10 2 0 4 5 4 10 0 6 -5 10 -11 10 -5 0
-7 -4 -4 -10z"/>
<path d="M4065 2486 c-25 -27 -26 -36 -3 -36 17 0 19 3 9 9 -9 6 -10 11 -2 15
6 4 16 4 21 1 6 -3 10 -2 10 3 0 15 -24 21 -35 8z"/>
<path d="M3975 2430 c-3 -5 -1 -10 4 -10 6 0 11 5 11 10 0 6 -2 10 -4 10 -3 0
-8 -4 -11 -10z"/>
<path d="M4060 2430 c0 -5 5 -10 10 -10 6 0 10 5 10 10 0 6 -4 10 -10 10 -5 0
-10 -4 -10 -10z"/>
<path d="M3934 2407 c-8 -9 -4 -17 14 -31 24 -19 25 -19 38 -1 18 25 18 36 -1
29 -8 -4 -13 -10 -10 -14 3 -5 -5 -6 -17 -2 -12 3 -17 7 -10 10 13 4 17 22 5
22 -5 -1 -13 -6 -19 -13z"/>
<path d="M3660 2302 c0 -7 -7 -12 -16 -12 -17 0 -15 -21 3 -27 10 -4 26 37 18
46 -3 2 -5 -1 -5 -7z"/>
<path d="M3478 2263 c7 -3 16 -2 19 1 4 3 -2 6 -13 5 -11 0 -14 -3 -6 -6z"/>
<path d="M3557 2255 c-8 -20 -4 -29 11 -24 5 2 6 13 2 23 -6 19 -7 19 -13 1z"/>
<path d="M3520 2192 c0 -10 -5 -23 -12 -30 -9 -9 -8 -12 5 -12 12 0 17 8 17
30 0 17 -2 30 -5 30 -3 0 -5 -8 -5 -18z"/>
<path d="M3190 2139 c0 -5 5 -7 10 -4 6 3 10 8 10 11 0 2 -4 4 -10 4 -5 0 -10
-5 -10 -11z"/>
<path d="M3220 2123 c0 -22 2 -25 10 -13 13 20 13 40 0 40 -5 0 -10 -12 -10
-27z"/>
<path d="M3280 2120 c0 -5 5 -10 11 -10 5 0 7 5 4 10 -3 6 -8 10 -11 10 -2 0
-4 -4 -4 -10z"/>
</g>
</svg>
