<?xml version="1.0" standalone="no"?>
<!DOCTYPE svg PUBLIC "-//W3C//DTD SVG 20010904//EN"
 "http://www.w3.org/TR/2001/REC-SVG-20010904/DTD/svg10.dtd">
<svg version="1.0" xmlns="http://www.w3.org/2000/svg"
 width="512.000000pt" height="512.000000pt" viewBox="0 0 512.000000 512.000000"
 preserveAspectRatio="xMidYMid meet">
<metadata>
Created by potrace 1.14, written by Peter Selinger 2001-2017
</metadata>
<g transform="translate(0.000000,512.000000) scale(0.100000,-0.100000)"
fill="#000000" stroke="none">
<path d="M162 5103 c-23 -8 -62 -35 -86 -59 -83 -83 -77 151 -74 -2504 3
-2248 4 -2367 21 -2398 24 -43 75 -95 117 -118 34 -18 103 -19 2405 -21 l2370
-3 50 24 c65 31 114 83 134 143 15 44 16 254 15 2403 0 2112 -2 2359 -16 2391
-24 55 -78 110 -133 135 l-50 24 -2355 -1 c-2070 -1 -2360 -2 -2398 -16z"/>
</g>
</svg>
